<?xml version="1.0" encoding="UTF-8" standalone="no"?>
<!-- Created with Inkscape (http://www.inkscape.org/) -->

<svg
   version="1.1"
   id="svg1"
   width="880"
   height="880"
   viewBox="0 0 880 880"
   sodipodi:docname="bearded-farmer.svg"
   inkscape:version="1.3.2 (091e20e, 2023-11-25, custom)"
   xmlns:inkscape="http://www.inkscape.org/namespaces/inkscape"
   xmlns:sodipodi="http://sodipodi.sourceforge.net/DTD/sodipodi-0.dtd"
   xmlns="http://www.w3.org/2000/svg"
   xmlns:svg="http://www.w3.org/2000/svg">
  <defs
     id="defs1">
    <clipPath
       clipPathUnits="userSpaceOnUse"
       id="clipPath4">
      <path
         d="M 0,660 H 660 V 0 H 0 Z"
         transform="translate(-317.72121,-537.78521)"
         id="path4" />
    </clipPath>
    <clipPath
       clipPathUnits="userSpaceOnUse"
       id="clipPath6">
      <path
         d="M 0,660 H 660 V 0 H 0 Z"
         transform="translate(-658.99901,-432.11281)"
         id="path6" />
    </clipPath>
    <clipPath
       clipPathUnits="userSpaceOnUse"
       id="clipPath8">
      <path
         d="M 0,660 H 660 V 0 H 0 Z"
         id="path8" />
    </clipPath>
    <clipPath
       clipPathUnits="userSpaceOnUse"
       id="clipPath10">
      <path
         d="M 0,660 H 660 V 0 H 0 Z"
         transform="translate(-306.59331,-176.55861)"
         id="path10" />
    </clipPath>
    <clipPath
       clipPathUnits="userSpaceOnUse"
       id="clipPath12">
      <path
         d="M 0,660 H 660 V 0 H 0 Z"
         id="path12" />
    </clipPath>
    <clipPath
       clipPathUnits="userSpaceOnUse"
       id="clipPath14">
      <path
         d="M 0,660 H 660 V 0 H 0 Z"
         transform="translate(-124.4067,-660.00002)"
         id="path14" />
    </clipPath>
    <clipPath
       clipPathUnits="userSpaceOnUse"
       id="clipPath16">
      <path
         d="M 0,660 H 660 V 0 H 0 Z"
         transform="translate(-56.302702,-660.00002)"
         id="path16" />
    </clipPath>
    <clipPath
       clipPathUnits="userSpaceOnUse"
       id="clipPath18">
      <path
         d="M 0,660 H 660 V 0 H 0 Z"
         transform="translate(-422.65721,-227.9941)"
         id="path18" />
    </clipPath>
    <clipPath
       clipPathUnits="userSpaceOnUse"
       id="clipPath20">
      <path
         d="M 0,660 H 660 V 0 H 0 Z"
         transform="translate(0,-660.00002)"
         id="path20" />
    </clipPath>
    <clipPath
       clipPathUnits="userSpaceOnUse"
       id="clipPath22">
      <path
         d="M 0,660 H 660 V 0 H 0 Z"
         transform="translate(-455.75681,-428.49461)"
         id="path22" />
    </clipPath>
    <clipPath
       clipPathUnits="userSpaceOnUse"
       id="clipPath24">
      <path
         d="M 0,660 H 660 V 0 H 0 Z"
         id="path24" />
    </clipPath>
    <clipPath
       clipPathUnits="userSpaceOnUse"
       id="clipPath26">
      <path
         d="M 0,660 H 660 V 0 H 0 Z"
         transform="translate(-448.71291,-229.18461)"
         id="path26" />
    </clipPath>
    <clipPath
       clipPathUnits="userSpaceOnUse"
       id="clipPath28">
      <path
         d="M 0,660 H 660 V 0 H 0 Z"
         transform="translate(-175.9624,-568.83892)"
         id="path28" />
    </clipPath>
    <clipPath
       clipPathUnits="userSpaceOnUse"
       id="clipPath30">
      <path
         d="M 0,660 H 660 V 0 H 0 Z"
         transform="translate(-107.8584,-568.83892)"
         id="path30" />
    </clipPath>
    <clipPath
       clipPathUnits="userSpaceOnUse"
       id="clipPath32">
      <path
         d="M 0,660 H 660 V 0 H 0 Z"
         transform="translate(-42.136201,-568.83892)"
         id="path32" />
    </clipPath>
    <clipPath
       clipPathUnits="userSpaceOnUse"
       id="clipPath34">
      <path
         d="M 0,660 H 660 V 0 H 0 Z"
         transform="translate(-305.89841,-457.40921)"
         id="path34" />
    </clipPath>
    <clipPath
       clipPathUnits="userSpaceOnUse"
       id="clipPath36">
      <path
         d="M 0,660 H 660 V 0 H 0 Z"
         transform="translate(-285.39891,-364.36671)"
         id="path36" />
    </clipPath>
    <clipPath
       clipPathUnits="userSpaceOnUse"
       id="clipPath38">
      <path
         d="M 0,660 H 660 V 0 H 0 Z"
         transform="translate(-280.4116,-356.23681)"
         id="path38" />
    </clipPath>
    <clipPath
       clipPathUnits="userSpaceOnUse"
       id="clipPath40">
      <path
         d="M 0,660 H 660 V 0 H 0 Z"
         transform="translate(-455.73051,-378.55661)"
         id="path40" />
    </clipPath>
    <clipPath
       clipPathUnits="userSpaceOnUse"
       id="clipPath42">
      <path
         d="M 0,660 H 660 V 0 H 0 Z"
         transform="translate(-285.39891,-345.02051)"
         id="path42" />
    </clipPath>
    <clipPath
       clipPathUnits="userSpaceOnUse"
       id="clipPath44">
      <path
         d="M 0,660 H 660 V 0 H 0 Z"
         id="path44" />
    </clipPath>
    <clipPath
       clipPathUnits="userSpaceOnUse"
       id="clipPath46">
      <path
         d="M 0,660 H 660 V 0 H 0 Z"
         transform="translate(-354.21481,-176.55861)"
         id="path46" />
    </clipPath>
    <clipPath
       clipPathUnits="userSpaceOnUse"
       id="clipPath48">
      <path
         d="M 0,660 H 660 V 0 H 0 Z"
         id="path48" />
    </clipPath>
    <clipPath
       clipPathUnits="userSpaceOnUse"
       id="clipPath50">
      <path
         d="M 0,660 H 660 V 0 H 0 Z"
         transform="translate(-375.41021,-345.02051)"
         id="path50" />
    </clipPath>
    <clipPath
       clipPathUnits="userSpaceOnUse"
       id="clipPath52">
      <path
         d="M 0,660 H 660 V 0 H 0 Z"
         transform="translate(-455.73051,-406.23681)"
         id="path52" />
    </clipPath>
    <clipPath
       clipPathUnits="userSpaceOnUse"
       id="clipPath54">
      <path
         d="M 0,660 H 660 V 0 H 0 Z"
         transform="translate(-444.29881,-404.26511)"
         id="path54" />
    </clipPath>
    <clipPath
       clipPathUnits="userSpaceOnUse"
       id="clipPath56">
      <path
         d="M 0,660 H 660 V 0 H 0 Z"
         transform="translate(-371.12401,-358.73781)"
         id="path56" />
    </clipPath>
    <clipPath
       clipPathUnits="userSpaceOnUse"
       id="clipPath58">
      <path
         d="M 0,660 H 660 V 0 H 0 Z"
         transform="translate(-330.40531,-479.93461)"
         id="path58" />
    </clipPath>
    <clipPath
       clipPathUnits="userSpaceOnUse"
       id="clipPath60">
      <path
         d="M 0,660 H 660 V 0 H 0 Z"
         id="path60" />
    </clipPath>
    <clipPath
       clipPathUnits="userSpaceOnUse"
       id="clipPath62">
      <path
         d="M 0,660 H 660 V 0 H 0 Z"
         transform="translate(-353.23241,-478.96441)"
         id="path62" />
    </clipPath>
    <clipPath
       clipPathUnits="userSpaceOnUse"
       id="clipPath64">
      <path
         d="M 0,660 H 660 V 0 H 0 Z"
         transform="translate(-330.40531,-546.00001)"
         id="path64" />
    </clipPath>
    <clipPath
       clipPathUnits="userSpaceOnUse"
       id="clipPath66">
      <path
         d="M 0,660 H 660 V 0 H 0 Z"
         transform="translate(-323.38571,-520.90432)"
         id="path66" />
    </clipPath>
    <clipPath
       clipPathUnits="userSpaceOnUse"
       id="clipPath68">
      <path
         d="M 0,660 H 660 V 0 H 0 Z"
         transform="translate(-330.40531,-531.88771)"
         id="path68" />
    </clipPath>
    <clipPath
       clipPathUnits="userSpaceOnUse"
       id="clipPath70">
      <path
         d="M 0,660 H 660 V 0 H 0 Z"
         transform="translate(-323.82621,-512.77931)"
         id="path70" />
    </clipPath>
    <clipPath
       clipPathUnits="userSpaceOnUse"
       id="clipPath72">
      <path
         d="M 0,660 H 660 V 0 H 0 Z"
         transform="translate(-319.60641,-534.06451)"
         id="path72" />
    </clipPath>
    <clipPath
       clipPathUnits="userSpaceOnUse"
       id="clipPath74">
      <path
         d="M 0,660 H 660 V 0 H 0 Z"
         transform="translate(-320.58891,-532.99321)"
         id="path74" />
    </clipPath>
    <clipPath
       clipPathUnits="userSpaceOnUse"
       id="clipPath76">
      <path
         d="M 0,660 H 660 V 0 H 0 Z"
         transform="translate(-336.47071,-534.06451)"
         id="path76" />
    </clipPath>
    <clipPath
       clipPathUnits="userSpaceOnUse"
       id="clipPath78">
      <path
         d="M 0,660 H 660 V 0 H 0 Z"
         transform="translate(-337.45311,-532.99321)"
         id="path78" />
    </clipPath>
  </defs>
  <sodipodi:namedview
     id="namedview1"
     pagecolor="#ffffff"
     bordercolor="#000000"
     borderopacity="0.25"
     inkscape:showpageshadow="2"
     inkscape:pageopacity="0.0"
     inkscape:pagecheckerboard="0"
     inkscape:deskcolor="#d1d1d1"
     inkscape:zoom="0.69318182"
     inkscape:cx="439.27869"
     inkscape:cy="440"
     inkscape:window-width="1440"
     inkscape:window-height="830"
     inkscape:window-x="-6"
     inkscape:window-y="-6"
     inkscape:window-maximized="1"
     inkscape:current-layer="g1">
    <inkscape:page
       x="0"
       y="0"
       inkscape:label="1"
       id="page1"
       width="880"
       height="880"
       margin="1.3333334 1.3346667 0 0"
       bleed="0" />
  </sodipodi:namedview>
  <g
     id="g1"
     inkscape:groupmode="layer"
     inkscape:label="1">
    <g
       id="group-MC0">
      <path
         id="path2"
         d="M 0,1 H 658.999 V 660 H 0 Z"
         style="fill:#ffeadb;fill-opacity:1;fill-rule:nonzero;stroke:none"
         transform="matrix(1.3333333,0,0,-1.3333333,0,880)" />
      <path
         id="path3"
         d="m 0,0 h 25.366 c 4.643,0 8.441,-3.798 8.441,-8.441 0,-4.642 -3.798,-8.44 -8.441,-8.44 H 0 c -4.642,0 -8.44,3.798 -8.44,8.44 C -8.44,-3.798 -4.642,0 0,0"
         style="fill:#332d2a;fill-opacity:1;fill-rule:evenodd;stroke:none"
         transform="matrix(1.3333333,0,0,-1.3333333,423.62827,162.95307)"
         clip-path="url(#clipPath4)" />
      <path
         id="path5"
         d="m 0,0 v -298.008 l -658.999,-48.357 v 319.624 c 42.078,40.807 104.664,48.501 154.473,23.073 46.651,-23.815 100.986,-15.233 138.025,21.805 l 2.135,2.134 c 49.964,49.966 130.103,52.131 182.682,6.495 C -153.713,2.488 -117.472,-4.251 -82.647,8.354 -55.612,18.14 -24.989,15.353 0,0"
         style="fill:#ffdabf;fill-opacity:1;fill-rule:evenodd;stroke:none"
         transform="matrix(1.3333333,0,0,-1.3333333,878.66533,303.8496)"
         clip-path="url(#clipPath6)" />
      <path
         id="path7"
         d="m 291.353,176.559 h 26.909 v 44.535 h -26.909 z"
         style="fill:#96bf1c;fill-opacity:1;fill-rule:evenodd;stroke:none"
         transform="matrix(1.3333333,0,0,-1.3333333,0,880)"
         clip-path="url(#clipPath8)" />
      <path
         id="path9"
         d="m 0,0 h -41.671 v 3.063 c 0,8.677 7.077,15.754 15.754,15.754 H 0 Z"
         style="fill:#96bf1c;fill-opacity:1;fill-rule:evenodd;stroke:none"
         transform="matrix(1.3333333,0,0,-1.3333333,408.79107,644.58853)"
         clip-path="url(#clipPath10)" />
      <path
         id="path11"
         d="m 263.435,176.559 h 55.96 v 4.471 h -55.96 z"
         style="fill:#332d2a;fill-opacity:1;fill-rule:evenodd;stroke:none"
         transform="matrix(1.3333333,0,0,-1.3333333,0,880)"
         clip-path="url(#clipPath12)" />
      <path
         id="path13"
         d="m 0,0 h 42.863 v -451.937 c 0,-17.352 14.151,-31.504 31.504,-31.504 h 6.119 v -30.005 h -118.11 v 30.005 h 6.119 c 17.353,0 31.505,14.152 31.505,31.504 z"
         style="fill:#8f5b27;fill-opacity:1;fill-rule:evenodd;stroke:none"
         transform="matrix(1.3333333,0,0,-1.3333333,165.8756,0)"
         clip-path="url(#clipPath14)" />
      <path
         id="path15"
         d="m 0,0 h 42.862 v -451.937 c 0,-17.352 14.153,-31.504 31.505,-31.504 h 6.119 v -30.005 h -118.11 v 30.005 h 6.12 c 17.351,0 31.504,14.152 31.504,31.504 z"
         style="fill:#663c12;fill-opacity:1;fill-rule:evenodd;stroke:none"
         transform="matrix(1.3333333,0,0,-1.3333333,75.070267,0)"
         clip-path="url(#clipPath16)" />
      <path
         id="path17"
         d="M 0,0 H 66.2 L 63.103,-51.436 H 3.098 Z"
         style="fill:#4d4441;fill-opacity:1;fill-rule:evenodd;stroke:none"
         transform="matrix(1.3333333,0,0,-1.3333333,563.54293,576.00787)"
         clip-path="url(#clipPath18)" />
      <path
         id="path19"
         d="m 0,0 h 33.443 v -451.937 c 0,-17.352 14.152,-31.504 31.504,-31.504 h 6.119 v -30.005 H 0 Z"
         style="fill:#45270a;fill-opacity:1;fill-rule:evenodd;stroke:none"
         transform="scale(1.3333333,-1.3333333)"
         clip-path="url(#clipPath20)" />
      <path
         id="path21"
         d="m 0,0 v 0 c 3.635,0 6.608,-2.974 6.608,-6.606 v -223.246 c 0,-3.634 -2.973,-6.607 -6.608,-6.607 -3.634,0 -6.606,2.973 -6.606,6.607 V -6.606 C -6.606,-2.974 -3.634,0 0,0"
         style="fill:#c98036;fill-opacity:1;fill-rule:evenodd;stroke:none"
         transform="matrix(1.3333333,0,0,-1.3333333,607.67573,308.67387)"
         clip-path="url(#clipPath22)" />
      <path
         id="path23"
         d="M 0,1 H 658.999 V 176.559 H 0 Z"
         style="fill:#96bf1c;fill-opacity:1;fill-rule:evenodd;stroke:none"
         transform="matrix(1.3333333,0,0,-1.3333333,0,880)"
         clip-path="url(#clipPath24)" />
      <path
         id="path25"
         d="m 0,0 h 14.089 v -31.294 c 0,-3.874 -3.169,-7.045 -7.045,-7.045 -3.874,0 -7.044,3.171 -7.044,7.045 z"
         style="fill:#7d6f6a;fill-opacity:1;fill-rule:evenodd;stroke:none"
         transform="matrix(1.3333333,0,0,-1.3333333,598.28387,574.42053)"
         clip-path="url(#clipPath26)" />
      <path
         id="path27"
         d="M 0,0 46.331,91.161 H 39.188 L -8.693,5.279 -27.011,-9.484 -8.693,-49.128 v 12.836 c 0,13.207 2.71,24.52 8.693,36.292"
         style="fill:#8f5b27;fill-opacity:1;fill-rule:evenodd;stroke:none"
         transform="matrix(1.3333333,0,0,-1.3333333,234.61653,121.54813)"
         clip-path="url(#clipPath28)" />
      <path
         id="path29"
         d="M 0,0 46.331,91.161 H 39.188 L -8.693,5.279 -27.012,-9.484 -8.693,-49.128 v 12.836 c 0,13.207 2.71,24.52 8.693,36.292"
         style="fill:#663c12;fill-opacity:1;fill-rule:evenodd;stroke:none"
         transform="matrix(1.3333333,0,0,-1.3333333,143.8112,121.54813)"
         clip-path="url(#clipPath30)" />
      <path
         id="path31"
         d="M 0,0 46.331,91.161 H 39.188 L -8.693,5.279 -27.012,-9.484 -8.693,-49.128 v 12.836 c 0,13.207 2.71,24.52 8.693,36.292"
         style="fill:#45270a;fill-opacity:1;fill-rule:evenodd;stroke:none"
         transform="matrix(1.3333333,0,0,-1.3333333,56.1816,121.54813)"
         clip-path="url(#clipPath32)" />
      <path
         id="path33"
         d="m 0,0 -20.098,-34.662 c -5.271,-9.089 -7.508,-18.78 -7.681,-28.748 -0.184,-10.525 1.897,-21.546 5.177,-32.625 l 5.857,-19.775 c 2.124,-7.173 -19.409,-13.501 -21.533,-6.328 l -5.857,19.777 c -3.849,12.994 -6.286,26.196 -6.056,39.303 0.238,13.663 3.344,27.015 10.668,39.645 l 20.1,34.663 z"
         style="fill:#799c11;fill-opacity:1;fill-rule:evenodd;stroke:none"
         transform="matrix(1.3333333,0,0,-1.3333333,407.86453,270.12107)"
         clip-path="url(#clipPath34)" />
      <path
         id="path35"
         d="m 0,0 h 90.011 v -21.637 c 0,-11.902 -9.735,-21.638 -21.636,-21.638 H 21.638 C 9.737,-43.275 0,-33.539 0,-21.637 Z"
         style="fill:#2b3609;fill-opacity:1;fill-rule:evenodd;stroke:none"
         transform="matrix(1.3333333,0,0,-1.3333333,380.53187,394.17773)"
         clip-path="url(#clipPath36)" />
      <path
         id="path37"
         d="M 0,0 H 9.288 V -23.812 H 0 c -5.107,0 -9.286,4.179 -9.286,9.288 v 5.238 C -9.286,-4.179 -5.107,0 0,0"
         style="fill:#f29d72;fill-opacity:1;fill-rule:evenodd;stroke:none"
         transform="matrix(1.3333333,0,0,-1.3333333,373.88213,405.0176)"
         clip-path="url(#clipPath38)" />
      <path
         id="path39"
         d="m 0,0 h -28.465 c -12.301,0 -23.752,3.576 -33.315,10.03 -9.539,6.435 -17.135,15.728 -21.755,27.178 l -14.746,36.544 20.829,8.35 14.746,-36.544 c 2.881,-7.137 7.592,-12.913 13.494,-16.896 5.876,-3.964 13.004,-6.161 20.747,-6.161 l 28.465,0 z"
         style="fill:#799c11;fill-opacity:1;fill-rule:evenodd;stroke:none"
         transform="matrix(1.3333333,0,0,-1.3333333,607.64067,375.25787)"
         clip-path="url(#clipPath40)" />
      <path
         id="path41"
         d="m 0,0 h 38.339 v -127.739 c 0,-3.666 -3,-6.666 -6.667,-6.666 H 6.667 c -3.667,0 -6.667,3 -6.667,6.666 z"
         style="fill:#2b3609;fill-opacity:1;fill-rule:evenodd;stroke:none"
         transform="matrix(1.3333333,0,0,-1.3333333,380.53187,419.97267)"
         clip-path="url(#clipPath42)" />
      <path
         id="path43"
         d="m 342.548,176.559 h 26.906 v 44.535 h -26.906 z"
         style="fill:#96bf1c;fill-opacity:1;fill-rule:evenodd;stroke:none"
         transform="matrix(1.3333333,0,0,-1.3333333,0,880)"
         clip-path="url(#clipPath44)" />
      <path
         id="path45"
         d="m 0,0 h 41.672 v 3.063 c 0,8.677 -7.077,15.754 -15.754,15.754 H 0 Z"
         style="fill:#96bf1c;fill-opacity:1;fill-rule:evenodd;stroke:none"
         transform="matrix(1.3333333,0,0,-1.3333333,472.2864,644.58853)"
         clip-path="url(#clipPath46)" />
      <path
         id="path47"
         d="m 341.414,176.559 h 55.959 v 4.471 h -55.959 z"
         style="fill:#332d2a;fill-opacity:1;fill-rule:evenodd;stroke:none"
         transform="matrix(1.3333333,0,0,-1.3333333,0,880)"
         clip-path="url(#clipPath48)" />
      <path
         id="path49"
         d="m 0,0 h -38.339 v -127.739 c 0,-3.666 2.999,-6.666 6.667,-6.666 h 25.006 c 3.666,0 6.666,3 6.666,6.666 z"
         style="fill:#2b3609;fill-opacity:1;fill-rule:evenodd;stroke:none"
         transform="matrix(1.3333333,0,0,-1.3333333,500.54693,419.97267)"
         clip-path="url(#clipPath50)" />
      <path
         id="path51"
         d="m 0,0 v 0 c 7.205,0 13.098,-5.893 13.098,-13.097 v -6.668 c 0,-7.202 -5.893,-13.096 -13.098,-13.096 -7.204,0 -13.097,5.894 -13.097,13.096 v 6.668 C -13.097,-5.893 -7.204,0 0,0"
         style="fill:#f29d72;fill-opacity:1;fill-rule:evenodd;stroke:none"
         transform="matrix(1.3333333,0,0,-1.3333333,607.64067,338.35093)"
         clip-path="url(#clipPath52)" />
      <path
         id="path53"
         d="m 0,0 v 0 c 2.947,0 5.358,-2.409 5.358,-5.356 v -2.859 c 0,-2.947 -2.411,-5.356 -5.358,-5.356 -2.947,0 -5.357,2.409 -5.357,5.356 v 2.859 C -5.357,-2.409 -2.947,0 0,0"
         style="fill:#f5b290;fill-opacity:1;fill-rule:evenodd;stroke:none"
         transform="matrix(1.3333333,0,0,-1.3333333,592.3984,340.97987)"
         clip-path="url(#clipPath54)" />
      <path
         id="path55"
         d="m 0,0 c -6.773,0 -12.265,-8.209 -12.265,-18.336 0,-10.126 5.492,-18.334 12.265,-18.334 6.773,0 12.265,8.208 12.265,18.334 C 12.265,-8.209 6.773,0 0,0 m -81.439,0 c -6.774,0 -12.265,-8.209 -12.265,-18.336 0,-10.126 5.491,-18.334 12.265,-18.334 6.774,0 12.265,8.208 12.265,18.334 C -69.174,-8.209 -74.665,0 -81.439,0"
         style="fill:#2b3609;fill-opacity:1;fill-rule:evenodd;stroke:none"
         transform="matrix(1.3333333,0,0,-1.3333333,494.832,401.68293)"
         clip-path="url(#clipPath56)" />
      <path
         id="path57"
         d="m 0,0 c 26.978,0 49.053,-0.687 49.053,-29.528 v -92.782 c 0,-6.942 -5.663,-12.604 -12.606,-12.604 H -36.45 c -6.943,0 -12.604,5.662 -12.604,12.604 v 92.782 C -49.054,-0.687 -26.981,0 0,0"
         style="fill:#96bf1c;fill-opacity:1;fill-rule:evenodd;stroke:none"
         transform="matrix(1.3333333,0,0,-1.3333333,440.5404,240.0872)"
         clip-path="url(#clipPath58)" />
      <path
         id="path59"
         d="m 281.351,407.553 h 98.107 v 31.195 h -98.107 z"
         style="fill:#ffcc00;fill-opacity:1;fill-rule:evenodd;stroke:none"
         transform="matrix(1.3333333,0,0,-1.3333333,0,880)"
         clip-path="url(#clipPath60)" />
      <path
         id="path61"
         d="m 0,0 c 0.17,-0.022 0.341,-0.046 0.508,-0.068 v -12.535 c 0,-12.834 -10.501,-23.336 -23.335,-23.336 -12.836,0 -23.338,10.502 -23.338,23.336 v 12.535 c 0.17,0.022 0.339,0.046 0.509,0.068 4.728,0.627 8.21,4.603 8.21,9.373 v 4.339 H -8.211 V 9.373 C -8.211,4.603 -4.728,0.627 0,0"
         style="fill:#799c11;fill-opacity:1;fill-rule:evenodd;stroke:none"
         transform="matrix(1.3333333,0,0,-1.3333333,470.97653,241.3808)"
         clip-path="url(#clipPath62)" />
      <path
         id="path63"
         d="M 0,0 V 0 C 9.243,0 16.804,-7.562 16.804,-16.803 V -30.796 C 16.804,-40.038 9.243,-47.6 0,-47.6 c -9.243,0 -16.805,7.562 -16.805,16.804 v 13.993 C -16.805,-7.562 -9.243,0 0,0"
         style="fill:#f29d72;fill-opacity:1;fill-rule:evenodd;stroke:none"
         transform="matrix(1.3333333,0,0,-1.3333333,440.5404,152)"
         clip-path="url(#clipPath64)" />
      <path
         id="path65"
         d="M 0,0 H 14.038 C 21.058,0 26.8,-5.744 26.8,-12.762 v -8.654 c 0,-10.88 -8.9,-19.782 -19.78,-19.782 -10.88,0 -19.782,8.902 -19.782,19.782 v 8.654 C -12.762,-5.744 -7.02,0 0,0"
         style="fill:#332d2a;fill-opacity:1;fill-rule:evenodd;stroke:none"
         transform="matrix(1.3333333,0,0,-1.3333333,431.18093,185.46093)"
         clip-path="url(#clipPath66)" />
      <path
         id="path67"
         d="m 0,0 v 0 c 2.127,0 3.87,-1.741 3.87,-3.869 v -6.905 c 0,-2.129 -1.743,-3.87 -3.87,-3.87 -2.13,0 -3.869,1.741 -3.869,3.87 v 6.905 C -3.869,-1.741 -2.13,0 0,0"
         style="fill:#e08151;fill-opacity:1;fill-rule:evenodd;stroke:none"
         transform="matrix(1.3333333,0,0,-1.3333333,440.5404,170.8164)"
         clip-path="url(#clipPath68)" />
      <path
         id="path69"
         d="m 0,0 h 13.155 v -0.138 c 0,-2.481 -2.021,-4.506 -4.503,-4.506 H 4.505 C 2.024,-4.644 0,-2.619 0,-0.138 Z"
         style="fill:#e08151;fill-opacity:1;fill-rule:evenodd;stroke:none"
         transform="matrix(1.3333333,0,0,-1.3333333,431.76827,196.29427)"
         clip-path="url(#clipPath70)" />
      <path
         id="path71"
         d="m 0,0 h 4.733 c 0.59,0 1.071,-0.482 1.071,-1.071 0,-0.591 -0.481,-1.073 -1.071,-1.073 H 0 c -0.589,0 -1.071,0.482 -1.071,1.073 C -1.071,-0.482 -0.589,0 0,0"
         style="fill:#332d2a;fill-opacity:1;fill-rule:evenodd;stroke:none"
         transform="matrix(1.3333333,0,0,-1.3333333,426.14187,167.914)"
         clip-path="url(#clipPath72)" />
      <path
         id="path73"
         d="M 0,0 H 2.769 V -2.724 C 2.769,-3.485 2.146,-4.108 1.383,-4.108 0.624,-4.108 0,-3.485 0,-2.724 Z"
         style="fill:#332d2a;fill-opacity:1;fill-rule:evenodd;stroke:none"
         transform="matrix(1.3333333,0,0,-1.3333333,427.45187,169.3424)"
         clip-path="url(#clipPath74)" />
      <path
         id="path75"
         d="m 0,0 h 4.732 c 0.589,0 1.072,-0.482 1.072,-1.071 0,-0.591 -0.483,-1.073 -1.072,-1.073 H 0 c -0.59,0 -1.073,0.482 -1.073,1.073 C -1.073,-0.482 -0.59,0 0,0"
         style="fill:#332d2a;fill-opacity:1;fill-rule:evenodd;stroke:none"
         transform="matrix(1.3333333,0,0,-1.3333333,448.6276,167.914)"
         clip-path="url(#clipPath76)" />
      <path
         id="path77"
         d="M 0,0 H 2.768 V -2.724 C 2.768,-3.485 2.146,-4.108 1.383,-4.108 0.622,-4.108 0,-3.485 0,-2.724 Z"
         style="fill:#332d2a;fill-opacity:1;fill-rule:evenodd;stroke:none"
         transform="matrix(1.3333333,0,0,-1.3333333,449.93747,169.3424)"
         clip-path="url(#clipPath78)" />
    </g>
  </g>
</svg>
